<svg xmlns="http://www.w3.org/2000/svg" width="119.494" height="119.494" viewBox="0 0 119.494 119.494" style="" class="">
  <g id="Symbol_2_1" data-name="Symbol 2 – 1" transform="translate(-435 -1050)">
    <path id="Path_16" data-name="Path 16" d="M-847.086,386.284a3.33,3.33,0,0,0-4.159,0l-4.726,4a2.227,2.227,0,0,0,0,3.518,3.35,3.35,0,0,0,3.865.216V406.7a2.743,2.743,0,0,0,2.941,2.489,2.744,2.744,0,0,0,2.941-2.489V394.017a3.347,3.347,0,0,0,3.863-.216,2.226,2.226,0,0,0,0-3.518Z" transform="translate(1355.726 742.153)" fill="rgba(0,0,0,0)" stroke="#fff" stroke-linecap="round" stroke-miterlimit="10" stroke-width="2" class="eIybqtaR_0"></path>
    <path id="Path_17" data-name="Path 17" d="M-875.445,386.284a3.33,3.33,0,0,0-4.159,0l-4.725,4a2.226,2.226,0,0,0,0,3.518,3.349,3.349,0,0,0,3.864.216V406.7a2.743,2.743,0,0,0,2.941,2.489,2.744,2.744,0,0,0,2.941-2.489V394.017a3.347,3.347,0,0,0,3.863-.216,2.226,2.226,0,0,0,0-3.518Z" transform="translate(1360.457 742.153)" fill="rgba(0,0,0,0)" stroke="#fff" stroke-linecap="round" stroke-miterlimit="10" stroke-width="2" class="eIybqtaR_1"></path>
    <path id="Path_18" data-name="Path 18" d="M-921.426,363.245l17.305,10.694a13.958,13.958,0,0,0,18.038.683l13.831,1.258a42.671,42.671,0,0,0,31.394-9.865,121.871,121.871,0,0,0,5.424,31.727" transform="translate(1366.502 745.875)" fill="rgba(0,0,0,0)" stroke="#fff" stroke-linecap="round" stroke-miterlimit="10" stroke-width="2" class="eIybqtaR_2"></path>
    <path id="Path_19" data-name="Path 19" d="M-913.536,331.282l18.68,8.007,47.325-17.747a47.72,47.72,0,0,1,6.624-5.482" transform="translate(1365.186 753.746)" fill="rgba(0,0,0,0)" stroke="#fff" stroke-linecap="round" stroke-miterlimit="10" stroke-width="2" class="eIybqtaR_3"></path>
    <path id="Ellipse_17" data-name="Ellipse 17" transform="translate(445.076 1060.076)" fill="rgba(0,0,0,0)" stroke="#fff" stroke-linecap="round" stroke-miterlimit="10" stroke-width="2" d="M0,49.671A49.671,49.671 0,1,1 99.342,49.671A49.671,49.671 0,1,1 0,49.671" class="eIybqtaR_4"></path>
    <path id="Ellipse_18" data-name="Ellipse 18" transform="translate(436 1051)" fill="rgba(0,0,0,0)" stroke="#fff" stroke-linecap="round" stroke-miterlimit="10" stroke-width="2" d="M0,58.747A58.747,58.747 0,1,1 117.494,58.747A58.747,58.747 0,1,1 0,58.747" class="eIybqtaR_5"></path>
    <path id="Path_20" data-name="Path 20" d="M-873.843,367.827s21.154,4.7,36.467-7.136" transform="translate(1358.564 746.301)" fill="rgba(0,0,0,0)" stroke="#fff" stroke-linecap="round" stroke-miterlimit="10" stroke-width="2" class="eIybqtaR_6"></path>
  </g>
<style data-made-with="vivus-instant">.eIybqtaR_0{stroke-dasharray:68 70;stroke-dashoffset:69;}.start .eIybqtaR_0{animation:eIybqtaR_draw 2000ms linear 0ms forwards;}.eIybqtaR_1{stroke-dasharray:68 70;stroke-dashoffset:69;}.start .eIybqtaR_1{animation:eIybqtaR_draw 2000ms linear 166ms forwards;}.eIybqtaR_2{stroke-dasharray:120 122;stroke-dashoffset:121;}.start .eIybqtaR_2{animation:eIybqtaR_draw 2000ms linear 333ms forwards;}.eIybqtaR_3{stroke-dasharray:80 82;stroke-dashoffset:81;}.start .eIybqtaR_3{animation:eIybqtaR_draw 2000ms linear 500ms forwards;}.eIybqtaR_4{stroke-dasharray:313 315;stroke-dashoffset:314;}.start .eIybqtaR_4{animation:eIybqtaR_draw 2000ms linear 666ms forwards;}.eIybqtaR_5{stroke-dasharray:370 372;stroke-dashoffset:371;}.start .eIybqtaR_5{animation:eIybqtaR_draw 2000ms linear 833ms forwards;}.eIybqtaR_6{stroke-dasharray:39 41;stroke-dashoffset:40;}.start .eIybqtaR_6{animation:eIybqtaR_draw 2000ms linear 1000ms forwards;}@keyframes eIybqtaR_draw{100%{stroke-dashoffset:0;}}@keyframes eIybqtaR_fade{0%{stroke-opacity:1;}94.44444444444444%{stroke-opacity:1;}100%{stroke-opacity:0;}}</style></svg>
